# xmcd
#
# Track frame offsets:
#	157
#	2162
#	19985
#	38505
#	60885
#	79687
#	99337
#	149530
#	164262
#
# Disc length: 2559 seconds
# Revision: 0
# Processed by: cddbd v1.5.2PL0 Copyright (c) Steve Scherf et al.
# Submitted via: dBpowerAMP V12.0
#
DISCID=6209fd09
DTITLE=The Nighthawks - Live in Europe
DYEAR=1987
DGENRE=Blues
TTITLE0=Intro
TTITLE1=If You Love Me (Say I)
TTITLE2=Back to the City
TTITLE3=Mighty Long Time
TTITLE4=Nothin' But You
TTITLE5=Save That Dress
TTITLE6=Black Night
TTITLE7=Hard Headed Woman
TTITLE8=I Can Tell
EXTD=
EXTT0=
EXTT1=
EXTT2=
EXTT3=
EXTT4=
EXTT5=
EXTT6=
EXTT7=
EXTT8=
PLAYORDER=
